<svg width="400" height="400" viewBox="0 0 400 400" fill="none" xmlns="http://www.w3.org/2000/svg">
<g clip-path="url(#clip0_1604_3)">
<path d="M310 0H90C40.2944 0 0 40.2944 0 90V310C0 359.706 40.2944 400 90 400H310C359.706 400 400 359.706 400 310V90C400 40.2944 359.706 0 310 0Z" fill="#112F2C"/>
<path opacity="0.45" d="M117 129C105.262 137.007 95.6807 147.638 89.0668 159.996C82.4528 172.353 79 186.074 79 200C79 213.926 82.4528 227.647 89.0668 240.004C95.6807 252.362 105.262 262.993 117 271" stroke="#2A9D8F" stroke-width="3" stroke-linecap="round"/>
<path opacity="0.25" d="M79 94C61.7589 105.7 47.6355 121.484 37.8711 139.967C28.1066 158.45 23 179.065 23 200C23 220.935 28.1066 241.55 37.8711 260.033C47.6355 278.516 61.7589 294.3 79 306" stroke="#2A9D8F" stroke-width="2.5" stroke-linecap="round"/>
<path opacity="0.45" d="M282 129C293.121 137.007 302.197 147.638 308.463 159.996C314.729 172.353 318 186.074 318 200C318 213.926 314.729 227.647 308.463 240.004C302.197 252.362 293.121 262.993 282 271" stroke="#2A9D8F" stroke-width="3" stroke-linecap="round"/>
<path opacity="0.25" d="M319 94C336.857 105.7 351.485 121.484 361.598 139.967C371.711 158.45 377 179.065 377 200C377 220.935 371.711 241.55 361.598 260.033C351.485 278.516 336.857 294.3 319 306" stroke="#2A9D8F" stroke-width="2.5" stroke-linecap="round"/>
<path d="M231.919 122H166.081C152.229 122 141 133.103 141 146.8V190.2C141 203.897 152.229 215 166.081 215H231.919C245.771 215 257 203.897 257 190.2V146.8C257 133.103 245.771 122 231.919 122Z" fill="#2A9D8F"/>
<path d="M171.571 215L159 244L192 215H171.571Z" fill="#2A9D8F"/>
<path d="M181 153.2C181 148.108 183.002 143.224 186.565 139.624C190.128 136.023 194.961 134 200 134C205.039 134 209.872 136.023 213.435 139.624C216.998 143.224 219 148.108 219 153.2V166H181V153.2Z" stroke="#0D2B29" stroke-width="2.5" stroke-linecap="round" stroke-linejoin="round"/>
<path opacity="0.75" d="M218.206 164H180.794C176.49 164 173 167.544 173 171.917V194.083C173 198.456 176.49 202 180.794 202H218.206C222.51 202 226 198.456 226 194.083V171.917C226 167.544 222.51 164 218.206 164Z" fill="#0D2B29"/>
<path d="M199.5 188C203.09 188 206 185.09 206 181.5C206 177.91 203.09 175 199.5 175C195.91 175 193 177.91 193 181.5C193 185.09 195.91 188 199.5 188Z" fill="#2A9D8F"/>
<path d="M199.75 181H198.25C197.007 181 196 182.119 196 183.5V188.5C196 189.881 197.007 191 198.25 191H199.75C200.993 191 202 189.881 202 188.5V183.5C202 182.119 200.993 181 199.75 181Z" fill="#2A9D8F"/>
</g>
<defs>
<clipPath id="clip0_1604_3">
<rect width="400" height="400" fill="white"/>
</clipPath>
</defs>
</svg>
